<mxfile host="drawio-plugin" modified="2023-08-21T19:26:31.570Z" agent="5.0 (Windows NT 10.0; Win64; x64) AppleWebKit/537.36 (KHTML, like Gecko) Chrome/111.0.0.0 Safari/537.36" etag="jKpRKOXcJRoaUirz-6Yc" version="20.5.3" type="embed"><diagram id="C5RBs43oDa-KdzZeNtuy" name="Page-1"><mxGraphModel dx="1379" dy="1318" grid="1" gridSize="10" guides="1" tooltips="1" connect="1" arrows="1" fold="1" page="1" pageScale="1" pageWidth="827" pageHeight="1169" math="0" shadow="0"><root><mxCell id="WIyWlLk6GJQsqaUBKTNV-0"/><mxCell id="WIyWlLk6GJQsqaUBKTNV-1" parent="WIyWlLk6GJQsqaUBKTNV-0"/><mxCell id="RSnyf28cEjILG7TNWCcY-9" style="edgeStyle=orthogonalEdgeStyle;rounded=0;orthogonalLoop=1;jettySize=auto;html=1;exitX=0.5;exitY=1;exitDx=0;exitDy=0;entryX=0.5;entryY=0;entryDx=0;entryDy=0;" parent="WIyWlLk6GJQsqaUBKTNV-1" source="WIyWlLk6GJQsqaUBKTNV-3" target="RSnyf28cEjILG7TNWCcY-2" edge="1"><mxGeometry relative="1" as="geometry"/></mxCell><mxCell id="WIyWlLk6GJQsqaUBKTNV-3" value="Ask for input" style="rounded=1;whiteSpace=wrap;html=1;fontSize=12;glass=0;strokeWidth=1;shadow=0;" parent="WIyWlLk6GJQsqaUBKTNV-1" vertex="1"><mxGeometry x="160" y="80" width="120" height="40" as="geometry"/></mxCell><mxCell id="RSnyf28cEjILG7TNWCcY-20" value="No" style="edgeStyle=elbowEdgeStyle;rounded=0;orthogonalLoop=1;jettySize=auto;html=1;exitX=0;exitY=0.5;exitDx=0;exitDy=0;" parent="WIyWlLk6GJQsqaUBKTNV-1" source="WIyWlLk6GJQsqaUBKTNV-6" edge="1"><mxGeometry x="-0.9461" y="-10" relative="1" as="geometry"><mxPoint x="220" y="40" as="targetPoint"/><Array as="points"><mxPoint x="-60" y="270"/></Array><mxPoint as="offset"/></mxGeometry></mxCell><mxCell id="RSnyf28cEjILG7TNWCcY-23" value="Yes" style="edgeStyle=orthogonalEdgeStyle;rounded=0;orthogonalLoop=1;jettySize=auto;html=1;exitX=0.5;exitY=1;exitDx=0;exitDy=0;entryX=0.5;entryY=0;entryDx=0;entryDy=0;" parent="WIyWlLk6GJQsqaUBKTNV-1" source="WIyWlLk6GJQsqaUBKTNV-6" target="RSnyf28cEjILG7TNWCcY-22" edge="1"><mxGeometry y="20" relative="1" as="geometry"><mxPoint as="offset"/></mxGeometry></mxCell><mxCell id="WIyWlLk6GJQsqaUBKTNV-6" value="Are the coins enough?" style="rhombus;whiteSpace=wrap;html=1;shadow=0;fontFamily=Helvetica;fontSize=12;align=center;strokeWidth=1;spacing=6;spacingTop=-4;" parent="WIyWlLk6GJQsqaUBKTNV-1" vertex="1"><mxGeometry x="170" y="480" width="100" height="80" as="geometry"/></mxCell><mxCell id="WIyWlLk6GJQsqaUBKTNV-11" value="Stop" style="rounded=1;whiteSpace=wrap;html=1;fontSize=12;glass=0;strokeWidth=1;shadow=0;" parent="WIyWlLk6GJQsqaUBKTNV-1" vertex="1"><mxGeometry x="340" y="180" width="120" height="40" as="geometry"/></mxCell><mxCell id="RSnyf28cEjILG7TNWCcY-8" style="edgeStyle=orthogonalEdgeStyle;rounded=0;orthogonalLoop=1;jettySize=auto;html=1;exitX=0.5;exitY=1;exitDx=0;exitDy=0;entryX=0.5;entryY=0;entryDx=0;entryDy=0;" parent="WIyWlLk6GJQsqaUBKTNV-1" source="RSnyf28cEjILG7TNWCcY-0" target="WIyWlLk6GJQsqaUBKTNV-3" edge="1"><mxGeometry relative="1" as="geometry"/></mxCell><mxCell id="RSnyf28cEjILG7TNWCcY-0" value="Start program" style="rounded=1;whiteSpace=wrap;html=1;fontSize=12;glass=0;strokeWidth=1;shadow=0;" parent="WIyWlLk6GJQsqaUBKTNV-1" vertex="1"><mxGeometry x="160" y="-40" width="120" height="40" as="geometry"/></mxCell><mxCell id="RSnyf28cEjILG7TNWCcY-4" value="report" style="edgeStyle=orthogonalEdgeStyle;rounded=0;orthogonalLoop=1;jettySize=auto;html=1;exitX=0;exitY=0.5;exitDx=0;exitDy=0;entryX=1;entryY=0.5;entryDx=0;entryDy=0;" parent="WIyWlLk6GJQsqaUBKTNV-1" source="RSnyf28cEjILG7TNWCcY-2" target="RSnyf28cEjILG7TNWCcY-3" edge="1"><mxGeometry x="-0.0187" y="-10" relative="1" as="geometry"><mxPoint x="90" y="200" as="targetPoint"/><mxPoint x="-1" as="offset"/></mxGeometry></mxCell><mxCell id="RSnyf28cEjILG7TNWCcY-5" value="off" style="edgeStyle=orthogonalEdgeStyle;rounded=0;orthogonalLoop=1;jettySize=auto;html=1;exitX=1;exitY=0.5;exitDx=0;exitDy=0;" parent="WIyWlLk6GJQsqaUBKTNV-1" source="RSnyf28cEjILG7TNWCcY-2" edge="1"><mxGeometry x="-0.0071" y="-10" relative="1" as="geometry"><mxPoint x="340" y="200" as="targetPoint"/><mxPoint x="10" y="-10" as="offset"/></mxGeometry></mxCell><mxCell id="RSnyf28cEjILG7TNWCcY-6" value="coffee&amp;nbsp;type" style="edgeStyle=orthogonalEdgeStyle;rounded=0;orthogonalLoop=1;jettySize=auto;html=1;exitX=0.5;exitY=1;exitDx=0;exitDy=0;" parent="WIyWlLk6GJQsqaUBKTNV-1" source="RSnyf28cEjILG7TNWCcY-2" edge="1"><mxGeometry x="-0.5531" y="30" relative="1" as="geometry"><mxPoint x="220" y="280" as="targetPoint"/><mxPoint as="offset"/></mxGeometry></mxCell><mxCell id="RSnyf28cEjILG7TNWCcY-2" value="What is the &lt;br&gt;input" style="rhombus;whiteSpace=wrap;html=1;shadow=0;fontFamily=Helvetica;fontSize=12;align=center;strokeWidth=1;spacing=6;spacingTop=-4;" parent="WIyWlLk6GJQsqaUBKTNV-1" vertex="1"><mxGeometry x="170" y="160" width="100" height="80" as="geometry"/></mxCell><mxCell id="RSnyf28cEjILG7TNWCcY-10" style="edgeStyle=elbowEdgeStyle;rounded=0;orthogonalLoop=1;jettySize=auto;html=1;exitX=0.5;exitY=0;exitDx=0;exitDy=0;elbow=vertical;" parent="WIyWlLk6GJQsqaUBKTNV-1" source="RSnyf28cEjILG7TNWCcY-3" edge="1"><mxGeometry relative="1" as="geometry"><mxPoint x="220" y="60" as="targetPoint"/><Array as="points"><mxPoint x="130" y="60"/></Array></mxGeometry></mxCell><mxCell id="RSnyf28cEjILG7TNWCcY-3" value="Print report" style="rounded=1;whiteSpace=wrap;html=1;fontSize=12;glass=0;strokeWidth=1;shadow=0;" parent="WIyWlLk6GJQsqaUBKTNV-1" vertex="1"><mxGeometry y="180" width="120" height="40" as="geometry"/></mxCell><mxCell id="RSnyf28cEjILG7TNWCcY-14" value="" style="edgeStyle=elbowEdgeStyle;rounded=0;orthogonalLoop=1;jettySize=auto;html=1;exitX=0;exitY=0.5;exitDx=0;exitDy=0;" parent="WIyWlLk6GJQsqaUBKTNV-1" source="RSnyf28cEjILG7TNWCcY-15" edge="1"><mxGeometry x="-0.9429" y="-10" relative="1" as="geometry"><mxPoint x="220" y="50" as="targetPoint"/><Array as="points"><mxPoint x="-20" y="190"/></Array><mxPoint as="offset"/></mxGeometry></mxCell><mxCell id="RSnyf28cEjILG7TNWCcY-16" value="No" style="edgeStyle=orthogonalEdgeStyle;rounded=0;orthogonalLoop=1;jettySize=auto;html=1;exitX=0;exitY=0.5;exitDx=0;exitDy=0;entryX=1;entryY=0.5;entryDx=0;entryDy=0;" parent="WIyWlLk6GJQsqaUBKTNV-1" source="RSnyf28cEjILG7TNWCcY-11" target="RSnyf28cEjILG7TNWCcY-15" edge="1"><mxGeometry x="-0.2" y="-10" relative="1" as="geometry"><mxPoint as="offset"/></mxGeometry></mxCell><mxCell id="RSnyf28cEjILG7TNWCcY-18" value="Yes" style="edgeStyle=orthogonalEdgeStyle;rounded=0;orthogonalLoop=1;jettySize=auto;html=1;exitX=0.5;exitY=1;exitDx=0;exitDy=0;entryX=0.5;entryY=0;entryDx=0;entryDy=0;" parent="WIyWlLk6GJQsqaUBKTNV-1" source="RSnyf28cEjILG7TNWCcY-11" target="RSnyf28cEjILG7TNWCcY-17" edge="1"><mxGeometry y="20" relative="1" as="geometry"><mxPoint as="offset"/></mxGeometry></mxCell><mxCell id="RSnyf28cEjILG7TNWCcY-11" value="Are the resources sufficient" style="rhombus;whiteSpace=wrap;html=1;shadow=0;fontFamily=Helvetica;fontSize=12;align=center;strokeWidth=1;spacing=6;spacingTop=-4;" parent="WIyWlLk6GJQsqaUBKTNV-1" vertex="1"><mxGeometry x="170" y="280" width="100" height="80" as="geometry"/></mxCell><mxCell id="RSnyf28cEjILG7TNWCcY-15" value="Print 'no resources'" style="rounded=1;whiteSpace=wrap;html=1;fontSize=12;glass=0;strokeWidth=1;shadow=0;" parent="WIyWlLk6GJQsqaUBKTNV-1" vertex="1"><mxGeometry y="300" width="120" height="40" as="geometry"/></mxCell><mxCell id="RSnyf28cEjILG7TNWCcY-19" style="edgeStyle=orthogonalEdgeStyle;rounded=0;orthogonalLoop=1;jettySize=auto;html=1;exitX=0.5;exitY=1;exitDx=0;exitDy=0;entryX=0.5;entryY=0;entryDx=0;entryDy=0;" parent="WIyWlLk6GJQsqaUBKTNV-1" source="RSnyf28cEjILG7TNWCcY-17" target="WIyWlLk6GJQsqaUBKTNV-6" edge="1"><mxGeometry relative="1" as="geometry"/></mxCell><mxCell id="RSnyf28cEjILG7TNWCcY-17" value="Ask for the coins" style="rounded=1;whiteSpace=wrap;html=1;fontSize=12;glass=0;strokeWidth=1;shadow=0;" parent="WIyWlLk6GJQsqaUBKTNV-1" vertex="1"><mxGeometry x="160" y="400" width="120" height="40" as="geometry"/></mxCell><mxCell id="RSnyf28cEjILG7TNWCcY-26" style="edgeStyle=orthogonalEdgeStyle;rounded=0;orthogonalLoop=1;jettySize=auto;html=1;exitX=0.5;exitY=1;exitDx=0;exitDy=0;entryX=0.5;entryY=0;entryDx=0;entryDy=0;" parent="WIyWlLk6GJQsqaUBKTNV-1" source="RSnyf28cEjILG7TNWCcY-22" target="RSnyf28cEjILG7TNWCcY-25" edge="1"><mxGeometry relative="1" as="geometry"/></mxCell><mxCell id="RSnyf28cEjILG7TNWCcY-22" value="Return the change" style="rounded=1;whiteSpace=wrap;html=1;fontSize=12;glass=0;strokeWidth=1;shadow=0;" parent="WIyWlLk6GJQsqaUBKTNV-1" vertex="1"><mxGeometry x="160" y="600" width="120" height="40" as="geometry"/></mxCell><mxCell id="RSnyf28cEjILG7TNWCcY-28" style="edgeStyle=elbowEdgeStyle;rounded=0;orthogonalLoop=1;jettySize=auto;html=1;exitX=0;exitY=0.5;exitDx=0;exitDy=0;" parent="WIyWlLk6GJQsqaUBKTNV-1" source="RSnyf28cEjILG7TNWCcY-24" edge="1"><mxGeometry relative="1" as="geometry"><mxPoint x="220" y="30" as="targetPoint"/><Array as="points"><mxPoint x="-80" y="410"/></Array></mxGeometry></mxCell><mxCell id="RSnyf28cEjILG7TNWCcY-24" value="Reduce resources" style="rounded=1;whiteSpace=wrap;html=1;fontSize=12;glass=0;strokeWidth=1;shadow=0;" parent="WIyWlLk6GJQsqaUBKTNV-1" vertex="1"><mxGeometry x="160" y="760" width="120" height="40" as="geometry"/></mxCell><mxCell id="RSnyf28cEjILG7TNWCcY-27" style="edgeStyle=orthogonalEdgeStyle;rounded=0;orthogonalLoop=1;jettySize=auto;html=1;exitX=0.5;exitY=1;exitDx=0;exitDy=0;entryX=0.5;entryY=0;entryDx=0;entryDy=0;" parent="WIyWlLk6GJQsqaUBKTNV-1" source="RSnyf28cEjILG7TNWCcY-25" target="RSnyf28cEjILG7TNWCcY-24" edge="1"><mxGeometry relative="1" as="geometry"/></mxCell><mxCell id="RSnyf28cEjILG7TNWCcY-25" value="Make the coffee" style="rounded=1;whiteSpace=wrap;html=1;fontSize=12;glass=0;strokeWidth=1;shadow=0;" parent="WIyWlLk6GJQsqaUBKTNV-1" vertex="1"><mxGeometry x="160" y="680" width="120" height="40" as="geometry"/></mxCell></root></mxGraphModel></diagram></mxfile>